<svg xmlns="http://www.w3.org/2000/svg" width="128" height="128" viewBox="0 0 128 128">
  <!--
    Source reference for media/icons/extension-icon.png (the Marketplace
    icon in package.json's "icon" field, which must be a PNG). The actual
    PNG is generated by scripts/generate-icon.cjs (pure JS + pngjs), but
    this SVG is kept in sync as the readable, editable version of the same
    design: a stack of topic cards fanned out behind a front document with
    a folded corner — DITA topics assembled into a larger piece of content.
  -->
  <rect width="128" height="128" rx="28" fill="#F2ECE1"/>
  <rect x="34" y="46" width="52" height="66" rx="8" fill="#D8CBB4" transform="rotate(-8 60 79)"/>
  <rect x="42" y="40" width="52" height="66" rx="8" fill="#B99A7A" transform="rotate(5 68 73)"/>
  <path d="M46 34h38l12 12v54a6 6 0 0 1-6 6H46a6 6 0 0 1-6-6V40a6 6 0 0 1 6-6Z" fill="#FFFFFF"/>
  <path d="M84 34v12h12Z" fill="#EDE6D8"/>
  <rect x="52" y="66" width="26" height="5" rx="2.5" fill="#C7A98B"/>
  <rect x="52" y="78" width="26" height="5" rx="2.5" fill="#C7A98B"/>
  <rect x="52" y="90" width="18" height="5" rx="2.5" fill="#C7A98B"/>
</svg>
