<?xml version="1.0" encoding="UTF-8" standalone="no"?><svg width="16" height="16" viewBox="0 0 16 16" fill="none" xmlns="http://www.w3.org/2000/svg"><path d="M4 1.074C3.494 1.074 3.074 1.494 3.074 2v12c0 0.506 0.42 0.926 0.926 0.926h8c0.506 0 0.926-0.42 0.926-0.926V4.5C12.926 4.387 12.881 4.279 12.801 4.199l-3-3C9.721 1.119 9.613 1.074 9.5 1.074Zm0 0.852h5.324l2.75 2.75V14c0 0.046-0.028 0.074-0.074 0.074H4c-0.046 0-0.074-0.028-0.074-0.074V2c0-0.046 0.028-0.074 0.074-0.074z" fill="#000"/><path d="M9.5 1.074C9.387 1.074 9.279 1.119 9.199 1.199 9.119 1.279 9.074 1.387 9.074 1.5v3C9.074 4.613 9.119 4.721 9.199 4.801 9.279 4.881 9.387 4.926 9.5 4.926h3C12.613 4.926 12.721 4.881 12.801 4.801 12.881 4.721 12.926 4.613 12.926 4.5 12.926 4.387 12.881 4.279 12.801 4.199 12.721 4.119 12.613 4.074 12.5 4.074H9.926V1.5C9.926 1.387 9.881 1.279 9.801 1.199 9.721 1.119 9.613 1.074 9.5 1.074Z" fill="#000"/><path d="M5.5 6.875C5.387 6.875 5.279 6.92 5.199 6.999 5.119 7.079 5.074 7.188 5.074 7.301 5.075 7.535 5.265 7.725 5.5 7.725h5C10.735 7.725 10.925 7.535 10.926 7.301 10.926 7.188 10.881 7.079 10.801 6.999 10.721 6.92 10.613 6.875 10.5 6.875Z" fill="#000"/><path d="M5.5 8.875C5.387 8.875 5.279 8.92 5.199 8.999 5.119 9.079 5.074 9.188 5.074 9.301 5.075 9.535 5.265 9.725 5.5 9.725h5C10.735 9.725 10.925 9.535 10.926 9.301 10.926 9.188 10.881 9.079 10.801 8.999 10.721 8.92 10.613 8.875 10.5 8.875Z" fill="#000"/><path d="M5.5 10.875C5.387 10.875 5.279 10.92 5.199 10.999 5.119 11.079 5.074 11.188 5.074 11.301 5.075 11.535 5.265 11.725 5.5 11.725h3C8.735 11.725 8.925 11.535 8.926 11.301 8.926 11.188 8.881 11.079 8.801 10.999 8.721 10.92 8.613 10.875 8.5 10.875Z" fill="#000"/></svg>